HIERARCHY
ROOT Hips
{
	OFFSET 0.000000 0.000000 0.000000
	CHANNELS 6 Xposition Yposition Zposition Zrotation Yrotation Xrotation 
	JOINT LHipJoint
	{
		OFFSET 0.000000 0.000000 0.000000
		CHANNELS 3 Zrotation Yrotation Xrotation
		JOINT LeftUpLeg
		{
			OFFSET 1.363060 -1.794630 0.839290
			CHANNELS 3 Zrotation Yrotation Xrotation
			JOINT LeftLeg
			{
				OFFSET 2.448110 -6.726130 0.000000
				CHANNELS 3 Zrotation Yrotation Xrotation
				JOINT LeftFoot
				{
					OFFSET 2.562200 -7.039590 0.000000
					CHANNELS 3 Zrotation Yrotation Xrotation
					JOINT LeftToeBase
					{
						OFFSET 0.157640 -0.433110 2.322550
						CHANNELS 3 Zrotation Yrotation Xrotation
						End Site
						{
							OFFSET 0.000000 0.000000 0.000000
						}
					}
				}
			}
		}
	}
	JOINT RHipJoint
	{
		OFFSET 0.000000 0.000000 0.000000
		CHANNELS 3 Zrotation Yrotation Xrotation
		JOINT RightUpLeg
		{
			OFFSET -1.305520 -1.794630 0.839290
			CHANNELS 3 Zrotation Yrotation Xrotation
			JOINT RightLeg
			{
				OFFSET -2.542530 -6.985550 0.000000
				CHANNELS 3 Zrotation Yrotation Xrotation
				JOINT RightFoot
				{
					OFFSET -2.568260 -7.056230 0.000000
					CHANNELS 3 Zrotation Yrotation Xrotation
					JOINT RightToeBase
					{
						OFFSET -0.164730 -0.452590 2.363150
						CHANNELS 3 Zrotation Yrotation Xrotation
						End Site
						{
							OFFSET 0.000000 0.000000 0.000000
						}
					}
				}
			}
		}
	}
	JOINT LowerBack
	{
		OFFSET 0.000000 0.000000 0.000000
		CHANNELS 3 Zrotation Yrotation Xrotation
		JOINT Spine
		{
			OFFSET 0.028270 2.035590 -0.193380
			CHANNELS 3 Zrotation Yrotation Xrotation
			JOINT Spine1
			{
				OFFSET 0.056720 2.048850 -0.042750
				CHANNELS 3 Zrotation Yrotation Xrotation
				JOINT Neck
				{
					OFFSET 0.000000 0.000000 0.000000
					CHANNELS 3 Zrotation Yrotation Xrotation
					JOINT Neck1
					{
						OFFSET -0.054170 1.746240 0.172020
						CHANNELS 3 Zrotation Yrotation Xrotation
						JOINT Head
						{
							OFFSET 0.104070 1.761360 -0.123970
							CHANNELS 3 Zrotation Yrotation Xrotation
							End Site
							{
								OFFSET 0.000000 0.000000 0.000000
							}
						}
					}
				}
				JOINT LeftShoulder
				{
					OFFSET 0.000000 0.000000 0.000000
					CHANNELS 3 Zrotation Yrotation Xrotation
					JOINT LeftArm
					{
						OFFSET 3.362410 1.200890 -0.311210
						CHANNELS 3 Zrotation Yrotation Xrotation
						JOINT LeftForeArm
						{
							OFFSET 4.983000 -0.000000 -0.000000
							CHANNELS 3 Zrotation Yrotation Xrotation
							JOINT LeftHand
							{
								OFFSET 3.483560 -0.000000 -0.000000
								CHANNELS 3 Zrotation Yrotation Xrotation
								JOINT LeftFingerBase
								{
									OFFSET 0.000000 0.000000 0.000000
									CHANNELS 3 Zrotation Yrotation Xrotation
									JOINT LeftHandIndex1
									{
										OFFSET 0.715260 -0.000000 -0.000000
										CHANNELS 3 Zrotation Yrotation Xrotation
										End Site
										{
											OFFSET 0.000000 0.000000 0.000000
										}
									}
								}
								JOINT LThumb
								{
									OFFSET 0.000000 0.000000 0.000000
									CHANNELS 3 Zrotation Yrotation Xrotation
									End Site
									{
										OFFSET 0.000000 0.000000 0.000000
									}
								}
							}
						}
					}
				}
				JOINT RightShoulder
				{
					OFFSET 0.000000 0.000000 0.000000
					CHANNELS 3 Zrotation Yrotation Xrotation
					JOINT RightArm
					{
						OFFSET -3.136600 1.374050 -0.404650
						CHANNELS 3 Zrotation Yrotation Xrotation
						JOINT RightForeArm
						{
							OFFSET -5.241900 -0.000000 -0.000000
							CHANNELS 3 Zrotation Yrotation Xrotation
							JOINT RightHand
							{
								OFFSET -3.444170 -0.000000 -0.000000
								CHANNELS 3 Zrotation Yrotation Xrotation
								JOINT RightFingerBase
								{
									OFFSET 0.000000 0.000000 0.000000
									CHANNELS 3 Zrotation Yrotation Xrotation
									JOINT RightHandIndex1
									{
										OFFSET -0.622530 -0.000000 -0.000000
										CHANNELS 3 Zrotation Yrotation Xrotation
										End Site
										{
											OFFSET 0.000000 0.000000 0.000000
										}
									}
								}
								JOINT RThumb
								{
									OFFSET 0.000000 0.000000 0.000000
									CHANNELS 3 Zrotation Yrotation Xrotation
									End Site
									{
										OFFSET 0.000000 0.000000 0.000000
									}
								}
							}
						}
					}
				}
			}
		}
	}
}
MOTION
Frames: 10
Frame Time: 0.033333
1.430627 16.850014 -19.939873 91.252308 -41.483499 -28.626641 -108.176098 -35.030422 65.723153 36.412028 28.964886 -50.180177 -44.313756 60.213045 -43.325501 -20.449350 -25.514348 -67.140933 -3.908028 -1.307110 -69.836203 27.163265 -22.812583 -123.839319 166.804882 -78.380252 159.119326 111.783783 -39.428714 -117.717864 -42.158061 -21.581582 -38.048328 3.733202 -0.000301 -44.205397 -103.912437 81.488871 -19.750061 169.750840 84.702742 170.016375 -150.153490 67.434910 -163.909887 26.561880 1.856305 4.174999 -6.302290 12.558444 8.928050 -0.195344 0.024065 -0.060186 109.199072 45.173359 -2.658864 112.211647 12.979810 77.956477 -110.449797 25.226707 -137.231066 -22.829450 -1.099075 167.324762 11.210758 -9.806233 27.493844 0.180989 0.162524 -0.109881 -0.060600 -0.119656 0.185730 49.869148 67.407734 65.263594 60.459144 -27.178075 160.382426 -30.001901 -69.767688 73.741259 14.162196 -23.623392 31.806752 -100.088381 56.742987 103.213272 0.176387 -0.053100 0.137509 0.101925 0.226899 -0.034086 
1.428111 16.577003 -19.854872 92.800673 -41.714163 -28.854755 -111.890989 -32.717014 66.547537 44.530256 34.209092 -44.919742 -63.930644 58.860058 -50.388453 -15.602552 -29.840841 -74.211633 -3.887654 -1.312672 -66.700377 27.096924 -23.396840 -128.499302 -165.045079 -76.480915 132.146841 118.436784 -37.768543 -121.982530 -47.598908 -19.766518 -45.015957 3.488835 0.061743 -44.703256 -104.545427 80.613559 -15.903848 171.561057 85.355582 173.672831 -148.544614 65.053223 -159.427141 26.356848 3.479141 6.197355 0.575148 13.375096 11.245752 -0.042629 0.234945 -0.115512 111.160034 44.756341 -2.544156 112.790248 12.566289 77.756979 -107.224788 24.822132 -133.828366 -0.379781 -0.984173 166.899767 9.575528 -11.468682 20.655879 0.070775 0.090531 -0.088465 -0.220787 -0.082469 0.089308 57.418657 66.464804 70.778739 59.857734 -25.141696 161.352789 -26.474042 -76.103175 72.504334 20.145768 -23.576560 16.866414 -8.196704 75.218519 -139.413480 0.083404 -0.205540 0.155090 0.248899 0.024944 0.177733 
1.426395 16.214710 -19.753742 91.926096 -41.438383 -27.483786 -116.061781 -30.403277 68.883646 57.000163 39.854262 -36.233381 -85.999272 61.551121 -56.250092 -19.939833 -29.292287 -69.744767 -4.174743 -1.141206 -60.053128 26.736991 -25.245635 -130.201969 -159.523131 -69.229774 126.703659 124.876393 -40.443113 -119.085502 -47.622190 -16.096402 -43.335234 3.092751 0.206666 -44.801122 -88.033212 78.697449 0.779239 159.333603 83.717688 162.722633 -143.633748 64.113977 -155.209162 28.393691 1.593717 3.918611 4.440635 7.519039 10.840215 -0.028829 0.127421 0.014180 113.581151 44.126517 -2.843599 113.041878 13.790307 77.279936 -99.251279 26.136091 -130.863632 -0.054070 -20.649244 167.785505 6.162076 -14.693552 12.839031 0.167507 0.128666 -0.164587 -0.073409 0.000440 0.068267 64.361907 64.194828 75.623747 57.366562 -17.749579 164.206083 -44.274944 -71.935271 89.595628 24.806954 -15.875664 3.684365 -6.954163 70.792706 -125.653184 0.062582 -0.145688 0.093371 0.070096 0.311378 0.108334 
1.425723 15.778868 -19.630527 89.951266 -41.757831 -26.298015 -120.170336 -27.807337 73.535859 69.539632 43.946516 -27.436461 -102.897286 64.384761 -63.606193 -15.669267 -26.229517 -58.921122 -4.457910 -1.142519 -57.717156 27.708353 -26.950234 -129.330102 -155.594525 -62.891874 123.804528 133.009824 -45.488521 -112.498139 -42.701497 -5.967187 -41.849966 3.998782 0.093819 -44.239898 -74.060330 77.995043 15.343645 175.609595 81.260498 -179.153402 -137.505772 66.565348 -151.035609 25.282354 3.458134 4.387924 9.007012 2.631945 14.637363 -0.069364 0.196620 -0.156592 114.439432 43.989619 -4.695675 112.442855 15.285067 82.391275 -90.462612 23.083829 -122.046870 -5.136733 -51.666455 154.689869 6.335740 -17.273981 11.201044 0.043127 -0.005169 -0.079958 -0.159089 0.032041 0.006815 67.646390 62.866068 77.417606 57.347350 -10.738255 163.442271 -50.930552 -60.481741 88.343226 15.308339 -16.129902 3.720143 -1.088627 55.146765 -130.509183 0.036487 -0.130405 -0.038580 0.050087 0.043030 0.068648 
1.447557 15.292239 -19.461002 89.294633 -42.264334 -26.595823 -119.792743 -25.414942 74.711095 78.571691 45.395952 -24.671272 -120.678874 70.026014 -72.435997 -9.939578 -23.060500 -55.064624 -5.525841 -1.095605 -55.911106 28.781372 -27.664801 -126.423015 -154.400138 -58.953369 124.779053 139.687453 -50.651182 -102.039552 -40.127759 4.020829 -41.064363 5.647293 0.038524 -45.761463 -69.279417 77.596884 20.727120 169.929619 78.459827 175.042670 -139.012384 68.844803 -152.402393 23.282308 2.844510 6.076493 10.540549 2.953007 15.732160 -0.120870 -0.003200 -0.012444 115.979313 44.073839 -6.773514 113.065421 17.634681 89.260602 -83.498833 13.903702 -112.260999 24.905454 -54.247915 96.036952 1.485363 -21.964666 17.401580 0.147217 0.001158 -0.070189 0.081660 -0.088711 0.072718 72.196632 61.970107 81.036696 56.134666 -6.250082 164.137342 -55.034906 -53.005644 83.648013 7.479975 -4.870220 -1.050269 -57.405261 34.338613 -169.409967 0.065865 0.022965 0.057024 0.049316 0.045117 -0.094043 
1.450018 14.827382 -19.265074 88.538539 -43.919863 -27.040504 -121.132248 -22.964426 75.181206 90.525033 46.148554 -18.193907 -139.033076 73.086390 -83.873663 -4.884252 -24.567350 -49.924563 -6.528737 -1.273638 -57.950310 31.665918 -29.010235 -125.654249 -146.558698 -57.459805 122.252836 145.319481 -51.721286 -97.822133 -38.435958 12.495089 -39.228298 6.920617 -0.112843 -45.215640 -72.726682 76.294975 17.265818 171.327949 76.600169 175.108729 -148.882470 70.007928 -163.866387 17.904513 -2.916636 8.517487 10.875808 6.981260 15.973894 0.059883 0.021544 -0.118700 114.023439 44.238330 -9.627215 117.101859 22.250222 94.774098 -78.218343 3.638991 -102.246832 33.916899 -47.252585 68.606042 -2.703637 -25.116010 23.991933 -0.030353 0.040523 0.000679 0.009293 -0.048216 0.011640 80.568847 62.817929 90.898084 59.936215 -3.587494 161.486701 -52.455607 -43.710789 80.045117 17.979692 -2.274739 -5.518561 -47.092234 22.852172 -144.702418 0.070095 0.023789 -0.007206 -0.078297 0.123178 0.118903 
1.456251 14.419348 -19.038441 88.539465 -44.724616 -27.053124 -123.465686 -21.548108 75.786426 99.022846 46.225334 -13.830301 -154.337867 74.038013 -92.556704 -2.639341 -21.153783 -47.300507 -7.858924 -1.303394 -57.523305 33.499920 -29.116899 -125.786661 -142.076140 -57.546210 121.091527 148.461276 -51.247689 -93.372822 -32.017514 14.567722 -43.116681 8.181767 -0.238920 -45.372727 -74.425555 72.597806 15.821002 170.821743 76.463776 174.399412 -153.809022 67.985934 -169.048345 15.342910 -9.569624 7.622709 9.857539 13.084875 15.262760 -0.180478 0.057180 0.117164 115.818865 44.799758 -10.049477 121.366981 29.188069 100.668267 -71.997685 -7.455295 -99.959174 33.345111 -37.512676 68.384408 -5.090962 -26.515128 31.064996 0.057846 -0.006198 0.022357 0.182553 0.024133 0.008102 93.574259 64.795946 102.742155 64.277365 2.629055 158.488907 -45.920393 -28.459188 78.721939 26.044261 0.394866 -11.053861 -54.325243 29.807277 -121.737989 -0.026551 -0.028305 -0.020877 0.079606 0.037598 0.040713 
1.460642 14.103552 -18.803251 87.728354 -45.028781 -27.132477 -122.971767 -22.054438 75.115817 99.153344 45.642615 -13.460170 -157.008380 72.916839 -93.080993 -1.277245 -17.555165 -46.663298 -8.932108 -1.630536 -60.442806 35.791881 -29.691545 -125.386533 -136.856033 -58.041190 119.436848 153.073930 -48.814226 -91.799572 -21.381325 15.263156 -46.218229 8.913702 -0.306808 -46.120763 -76.085120 71.935802 14.356661 170.043797 76.895572 172.233197 -160.864934 68.329765 -175.668771 14.099887 -8.952061 11.580595 8.486875 11.782253 11.511223 0.073773 0.022105 -0.056501 113.306854 44.495781 -11.396386 127.554860 36.654539 105.825735 -63.733831 -12.369570 -104.079224 15.766512 -28.063052 69.019516 -5.229997 -29.029602 38.000805 -0.018444 -0.066633 -0.053964 -0.029047 0.021229 0.001802 103.805804 64.956810 111.325576 68.734304 11.172473 155.928401 -39.418073 -10.412947 78.070548 33.641841 1.864170 -16.184681 -66.553068 36.189959 -117.207389 -0.029260 0.056184 -0.031865 -0.018722 -0.077134 0.075680 
1.456356 13.892197 -18.571995 87.545649 -45.313648 -27.971363 -122.861224 -23.695874 74.693924 98.221953 45.084967 -12.136678 -159.296057 71.262846 -92.812709 1.940789 -11.238973 -42.083954 -9.548424 -1.639906 -60.786739 36.144298 -29.481431 -122.890840 -136.357233 -59.972675 120.754491 152.206575 -45.654820 -87.114430 -13.874378 13.757252 -53.096117 9.827532 -0.476760 -46.762031 -81.581381 70.113679 9.169218 174.429030 75.966339 176.022786 -166.181002 68.449464 179.893945 11.682362 -8.140760 13.910540 10.380620 11.122638 15.098242 0.036612 -0.050785 0.135360 109.454863 45.047357 -12.627317 135.803213 45.648490 112.227684 -56.721311 -13.295078 -109.404953 6.409229 -20.092048 71.704942 -6.019149 -32.377409 38.264458 -0.040755 -0.051603 0.032730 -0.045989 0.106055 -0.045420 114.315777 65.161636 121.010205 72.416656 23.661580 153.517209 -28.576814 0.058391 82.237141 35.959007 2.755499 -22.791619 -78.854005 39.794072 -122.979682 -0.032144 -0.055380 -0.046344 0.017760 -0.031664 -0.070842 
1.445935 13.782890 -18.331295 86.071005 -44.586108 -28.093348 -120.405910 -25.751682 74.120124 92.293977 45.519181 -13.206073 -152.681525 70.721355 -83.864247 7.235561 -0.460450 -38.323629 -8.997166 -1.680944 -62.437460 36.615969 -30.822877 -121.697958 -134.913731 -63.407549 120.402632 149.725587 -41.507059 -85.503564 -7.369657 11.764434 -58.004162 9.579975 -0.310278 -48.932294 -85.046969 69.541782 4.750050 177.067051 74.728349 177.788698 -170.190163 70.624501 177.130079 12.811175 -2.897010 14.524932 8.295330 1.225895 17.642319 0.021935 -0.039703 -0.016359 105.698689 44.733340 -13.153397 149.191085 55.452776 122.662427 -52.011638 -9.878644 -115.987165 -1.069863 -7.502188 69.273041 -0.696023 -33.758616 36.297151 -0.019072 -0.031648 0.003245 -0.019965 0.019241 -0.041508 123.500033 65.593645 130.543321 74.881072 39.094073 152.834855 -15.002178 7.040707 86.617598 39.264491 -0.206622 -27.601622 -46.542750 28.989367 -98.554706 0.021691 0.031645 0.012050 -0.115685 0.043457 -0.007451 
